<?xml version="1.0" encoding="UTF-8" standalone="no"?>
<!-- Created with Inkscape (http://www.inkscape.org/) -->

<svg
   width="1280mm"
   height="640mm"
   viewBox="0 0 1280 640"
   version="1.1"
   id="svg1"
   inkscape:version="1.3.2 (091e20e, 2023-11-25)"
   sodipodi:docname="dodger_logo.svg"
   xmlns:inkscape="http://www.inkscape.org/namespaces/inkscape"
   xmlns:sodipodi="http://sodipodi.sourceforge.net/DTD/sodipodi-0.dtd"
   xmlns="http://www.w3.org/2000/svg"
   xmlns:svg="http://www.w3.org/2000/svg">
  <sodipodi:namedview
     id="namedview1"
     pagecolor="#ffffff"
     bordercolor="#000000"
     borderopacity="0.25"
     inkscape:showpageshadow="2"
     inkscape:pageopacity="0.0"
     inkscape:pagecheckerboard="0"
     inkscape:deskcolor="#d1d1d1"
     inkscape:document-units="mm"
     inkscape:zoom="0.10579419"
     inkscape:cx="2925.4915"
     inkscape:cy="80.344678"
     inkscape:window-width="2496"
     inkscape:window-height="1232"
     inkscape:window-x="2321"
     inkscape:window-y="43"
     inkscape:window-maximized="0"
     inkscape:current-layer="layer1" />
  <defs
     id="defs1">
    <rect
       x="478.52344"
       y="63.803127"
       width="808.17291"
       height="203.22478"
       id="rect2" />
  </defs>
  <g
     inkscape:label="Layer 1"
     inkscape:groupmode="layer"
     id="layer1">
    <path
       id="path1"
       style="fill:#800000;stroke-width:1.93844"
       d="M 458.03702,21.176296 A 301.23096,301.23096 0 0 0 168.92477,331.58871 301.23096,301.23096 0 0 0 476.86872,623.32469 L 551.4572,543.24268 A 278.55768,278.55768 0 0 1 453.94813,340.59568 278.55768,278.55768 0 0 1 635.4123,71.272984 301.23096,301.23096 0 0 0 458.03702,21.176296 Z M 635.4123,71.272984 A 301.23096,301.23096 0 0 1 770.88764,307.6459 L 551.4572,543.24268 A 278.55768,278.55768 0 0 0 738.71401,610.3727 L 1010.6036,318.455 A 278.55768,278.55768 0 0 0 721.29828,53.550596 278.55768,278.55768 0 0 0 635.4123,71.272984 Z M 1027.0918,41.15136 v 31.53002 c 0,7.126891 0.5188,13.293483 1.5598,18.49853 1.041,5.20504 2.8812,9.9886 5.5238,14.35282 3.5234,5.80562 8.5702,10.60971 15.1366,14.4134 6.6063,3.80368 14.0738,5.70554 22.4018,5.70554 8.6484,0 16.1569,-1.78242 22.5231,-5.34587 6.4062,-3.52342 11.4903,-8.36859 15.2538,-14.53456 2.2423,-3.60348 3.963,-8.04547 5.1643,-13.330585 1.2412,-5.285115 1.8627,-11.571147 1.8627,-18.858195 v -32.4311 z m 16.7531,23.060685 h 55.9764 v 5.826694 c 0,4.964801 -0.2221,8.669622 -0.6626,11.111977 -0.4004,2.482406 -1.1786,4.903103 -2.3398,7.265391 -2.3622,4.644497 -5.6471,8.028273 -9.8513,10.150343 -4.1639,2.16208 -9.1863,3.24083 -15.0721,3.24083 -5.9256,0 -10.9108,-0.97984 -14.9547,-2.94174 -4.0039,-1.96189 -7.2104,-5.045188 -9.6128,-9.249263 -1.3212,-2.442367 -2.2395,-4.94522 -2.76,-7.507693 -0.4804,-2.562484 -0.7231,-6.584544 -0.7231,-12.069845 z m 27.9295,73.812345 c -14.2538,0 -25.5866,4.08368 -33.9947,12.25158 -8.3681,8.16791 -12.5506,19.43909 -12.5506,33.813 0,14.41394 4.1825,25.70565 12.5506,33.87357 8.4081,8.1679 19.7409,12.25157 33.9947,12.25157 14.3739,0 25.7234,-4.10421 34.0515,-12.31215 8.3681,-8.20794 12.5545,-19.47912 12.5545,-33.81299 0,-14.37391 -4.1864,-25.64509 -12.5545,-33.813 -8.3281,-8.1679 -19.6776,-12.25158 -34.0515,-12.25158 z m 0,23.96176 c 5.2051,0 9.7703,0.62153 13.6941,1.86273 3.9638,1.28123 7.0638,2.92368 9.306,4.92561 2.4023,2.16209 4.127,4.52497 5.168,7.08744 1.0409,2.60252 1.5597,5.36479 1.5597,8.28761 0,2.8828 -0.5393,5.64505 -1.6203,8.28761 -1.0812,2.68259 -2.8225,5.04546 -5.2248,7.08744 -2.3222,2.00194 -5.3682,3.62384 -9.1319,4.86503 -3.7636,1.24121 -8.325,1.85896 -13.6902,1.85896 -5.0049,0 -9.3723,-0.53938 -13.0959,-1.62043 -3.6835,-1.08104 -6.8863,-2.74402 -9.6089,-4.98619 -2.4024,-2.00194 -4.181,-4.34427 -5.3421,-7.02687 -1.1211,-2.68259 -1.6847,-5.50268 -1.6847,-8.46555 0,-2.96286 0.5636,-5.78674 1.6847,-8.46933 1.1211,-2.68261 2.8625,-5.02492 5.2247,-7.02687 2.3623,-2.00193 5.4046,-3.62383 9.1281,-4.86504 3.7637,-1.20116 8.3083,-1.80215 13.6335,-1.80215 z m -44.6826,85.8254 v 31.53003 c 0,7.12689 0.5188,13.29347 1.5598,18.49852 1.041,5.20503 2.8812,9.98859 5.5238,14.35282 3.5234,5.80562 8.5702,10.60971 15.1366,14.4134 6.6063,3.80368 14.0738,5.70554 22.4018,5.70554 8.6484,0 16.1569,-1.78243 22.5231,-5.34587 6.4062,-3.52342 11.4903,-8.36858 15.2538,-14.53456 2.2423,-3.60347 3.963,-8.04548 5.1643,-13.33059 1.2412,-5.28511 1.8627,-11.57115 1.8627,-18.85818 v -32.43111 z m 16.7531,23.06069 h 55.9764 v 5.82668 c 0,4.96482 -0.2221,8.66963 -0.6626,11.112 -0.4004,2.4824 -1.1786,4.90308 -2.3398,7.26537 -2.3622,4.6445 -5.6471,8.02828 -9.8513,10.15034 -4.1639,2.16209 -9.1863,3.24085 -15.0721,3.24085 -5.9256,0 -10.9108,-0.97986 -14.9547,-2.94175 -4.0039,-1.96191 -7.2104,-5.04519 -9.6128,-9.24927 -1.3212,-2.44235 -2.2395,-4.94521 -2.76,-7.50768 -0.4804,-2.56248 -0.7231,-6.58454 -0.7231,-12.06986 z m 28.0506,73.81234 c -14.574,0 -26.0057,4.30202 -34.2938,12.91036 -8.2479,8.60832 -12.3726,20.52156 -12.3726,35.73629 0,6.56635 0.7615,13.15286 2.2829,19.75926 1.5615,6.6064 3.1218,11.91258 4.6833,15.91646 h 44.1412 v -41.26011 h -16.8743 v 17.83596 h -17.5368 c -0.08,-0.88085 -0.1417,-1.86069 -0.1818,-2.94174 -0.04,-1.041 -0.06,-2.0041 -0.06,-2.88496 0,-10.24991 2.6223,-17.99732 7.8673,-23.24239 5.2451,-5.24509 12.8152,-7.86736 22.7048,-7.86736 4.8447,0 9.1094,0.72041 12.793,2.16181 3.7236,1.48144 6.7864,3.48598 9.1887,6.00843 2.4824,2.64255 4.3226,5.62316 5.5238,8.94637 1.2012,3.32321 1.8021,7.02803 1.8021,11.11198 0,3.48338 -0.461,6.76448 -1.3818,9.84745 -0.9209,3.12303 -2.0202,5.848 -3.3015,8.17025 -1.081,2.00193 -2.4024,4.08485 -3.9639,6.24694 -1.5215,2.16209 -2.7029,3.80076 -3.5437,4.92184 v 2.58585 h 20.9594 c 3.163,-6.52631 5.2665,-12.45402 6.3076,-17.77918 1.081,-5.32515 1.6203,-10.93182 1.6203,-16.81752 0,-15.53503 -4.2647,-27.64608 -12.793,-36.33448 -8.4882,-8.68842 -19.6772,-13.03151 -33.5707,-13.03151 z m -44.8037,104.9827 v 64.68046 h 17.2945 v -41.74093 h 22.1029 v 38.73861 h 17.2944 v -38.73861 h 15.4356 v 41.74093 h 17.2985 v -64.68046 z m 0,84.01948 v 22.94331 h 32.7907 v 10.63116 l -32.7907,24.382 v 28.16802 l 38.3145,-29.84902 c 2.7627,5.68551 6.2286,10.04913 10.3926,13.09208 4.1641,3.08298 9.5486,4.62652 16.155,4.62652 4.8047,0 8.7894,-1.00416 11.9526,-3.0061 3.2031,-1.96191 5.8047,-4.62147 7.8068,-7.98472 2.0017,-3.32322 3.3027,-6.88806 3.9033,-10.69174 0.6005,-3.80369 0.9011,-8.34836 0.9011,-13.63349 v -38.67802 z m 48.8851,22.94331 h 24.0829 v 8.34818 c 0,2.76268 -0.079,5.18337 -0.2385,7.26539 -0.1201,2.082 -0.5028,3.90551 -1.1434,5.46701 -0.9208,2.24218 -2.1807,3.82301 -3.7822,4.74389 -1.6016,0.92089 -3.5239,1.38191 -5.7662,1.38191 -2.5224,0 -4.5437,-0.38265 -6.0652,-1.14338 -1.4815,-0.72071 -2.8438,-1.8816 -4.0851,-3.48315 -1.2812,-1.68163 -2.1006,-3.76075 -2.461,-6.24315 -0.3603,-2.4824 -0.5413,-5.5657 -0.5413,-9.24926 z" />
  </g>
</svg>
