<?xml version="1.0" encoding="UTF-8" standalone="no"?>
<!-- Created with Inkscape (http://www.inkscape.org/) -->

<svg
   width="1280mm"
   height="640mm"
   viewBox="0 0 1280 640"
   version="1.1"
   id="svg1"
   inkscape:version="1.3.2 (091e20e, 2023-11-25)"
   sodipodi:docname="dodger_logo.svg"
   inkscape:export-filename="dodger_logo.png"
   inkscape:export-xdpi="25.4"
   inkscape:export-ydpi="25.4"
   xmlns:inkscape="http://www.inkscape.org/namespaces/inkscape"
   xmlns:sodipodi="http://sodipodi.sourceforge.net/DTD/sodipodi-0.dtd"
   xmlns="http://www.w3.org/2000/svg"
   xmlns:svg="http://www.w3.org/2000/svg">
  <sodipodi:namedview
     id="namedview1"
     pagecolor="#ffffff"
     bordercolor="#000000"
     borderopacity="0.25"
     inkscape:showpageshadow="2"
     inkscape:pageopacity="0.0"
     inkscape:pagecheckerboard="0"
     inkscape:deskcolor="#d1d1d1"
     inkscape:document-units="mm"
     inkscape:zoom="0.10579419"
     inkscape:cx="2925.4915"
     inkscape:cy="430.08034"
     inkscape:window-width="2496"
     inkscape:window-height="1232"
     inkscape:window-x="2321"
     inkscape:window-y="43"
     inkscape:window-maximized="0"
     inkscape:current-layer="layer1"
     inkscape:export-bgcolor="#00000000" />
  <defs
     id="defs1">
    <rect
       x="478.52344"
       y="63.803127"
       width="808.17291"
       height="203.22478"
       id="rect2" />
  </defs>
  <g
     inkscape:label="Layer 1"
     inkscape:groupmode="layer"
     id="layer1">
    <path
       id="path1"
       style="fill:#800000;stroke-width:1.4556"
       d="M 511.75619,91.154504 A 226.19774,226.19774 0 0 0 294.65853,324.2467 226.19774,226.19774 0 0 0 525.89713,543.31455 l 56.00933,-60.13449 A 209.17212,209.17212 0 0 1 508.6858,331.01014 209.17212,209.17212 0 0 1 644.9493,128.77267 226.19774,226.19774 0 0 0 511.75619,91.154504 Z M 644.9493,128.77267 a 226.19774,226.19774 0 0 1 101.72996,177.4951 l -164.7728,176.91229 a 209.17212,209.17212 0 0 0 140.61326,50.40869 L 926.68469,314.38445 A 209.17212,209.17212 0 0 0 709.44205,115.46473 209.17212,209.17212 0 0 0 644.9493,128.77267 Z m 294.11657,-22.61866 v 23.67624 c 0,5.35167 0.38957,9.98223 1.17127,13.89076 0.7817,3.90852 2.16352,7.50055 4.14788,10.7777 2.64576,4.3595 6.43546,7.96695 11.36625,10.82318 4.96074,2.85623 10.56817,4.28436 16.82176,4.28436 6.49418,0 12.1324,-1.33844 16.91285,-4.01428 4.81049,-2.64578 8.6282,-6.28407 11.45422,-10.91416 1.6838,-2.7059 2.9759,-6.04144 3.878,-10.01009 0.932,-3.96865 1.3987,-8.68891 1.3987,-14.16083 v -24.35288 z m 12.58009,17.31653 h 42.03331 v 4.37533 c 0,3.72812 -0.16678,6.51011 -0.49755,8.34411 -0.30067,1.86406 -0.88503,3.68179 -1.75699,5.45566 -1.7738,3.4876 -4.24047,6.02852 -7.39745,7.62201 -3.12672,1.62353 -6.89809,2.43357 -11.31781,2.43357 -4.4496,0 -8.19304,-0.73577 -11.22965,-2.20898 -3.00658,-1.47321 -5.41437,-3.78849 -7.21836,-6.94538 -0.99211,-1.834 -1.68167,-3.71342 -2.07252,-5.63761 -0.36074,-1.9242 -0.54298,-4.94441 -0.54298,-9.06338 z m 20.97258,55.42652 c -10.70334,0 -19.21327,3.06648 -25.52701,9.19985 -6.2837,6.13338 -9.42439,14.59703 -9.42439,25.39057 0,10.82359 3.14069,19.30266 9.42439,25.43604 6.31374,6.13337 14.82367,9.19985 25.52701,9.19985 10.79352,0 19.31599,-3.0819 25.56965,-9.24534 6.28371,-6.16343 9.42731,-14.62709 9.42731,-25.39055 0,-10.79354 -3.1436,-19.25719 -9.42731,-25.39057 -6.25366,-6.13337 -14.77613,-9.19985 -25.56965,-9.19985 z m 0,17.99316 c 3.90856,0 7.33662,0.46671 10.28305,1.39874 2.97646,0.96209 5.30429,2.19543 6.98798,3.6987 1.80392,1.62354 3.09901,3.39785 3.88071,5.32204 0.78162,1.95426 1.1712,4.02848 1.1712,6.22326 0,2.16473 -0.40497,4.23893 -1.2167,6.22326 -0.81189,2.01439 -2.11945,3.78869 -3.92337,5.32204 -1.74376,1.50328 -4.03104,2.72118 -6.85724,3.6532 -2.82613,0.93204 -6.25134,1.39592 -10.28013,1.39592 -3.75823,0 -7.03777,-0.40503 -9.83386,-1.2168 -2.76598,-0.81177 -5.171,-2.06052 -7.21543,-3.74419 -1.80399,-1.50328 -3.13956,-3.26216 -4.01144,-5.27655 -0.84185,-2.01439 -1.26506,-4.13203 -1.26506,-6.35688 0,-2.22485 0.42321,-4.34533 1.26506,-6.35972 0.84184,-2.0144 2.14948,-3.77327 3.92328,-5.27655 1.77388,-1.50328 4.05838,-2.72118 6.8544,-3.65322 2.8262,-0.90196 6.23879,-1.35325 10.23755,-1.35325 z m -33.55267,64.44726 v 23.67626 c 0,5.35166 0.38957,9.98222 1.17127,13.89075 0.7817,3.90851 2.16352,7.50054 4.14788,10.77769 2.64576,4.35951 6.43546,7.96695 11.36625,10.82319 4.96074,2.85622 10.56817,4.28435 16.82176,4.28435 6.49418,0 12.1324,-1.33845 16.91285,-4.01427 4.81049,-2.64578 8.6282,-6.28406 11.45422,-10.91417 1.6838,-2.70589 2.9759,-6.04144 3.878,-10.01009 0.932,-3.96865 1.3987,-8.68891 1.3987,-14.16082 v -24.35289 z m 12.58009,17.31654 h 42.03331 v 4.37532 c 0,3.72813 -0.16678,6.51012 -0.49755,8.34412 -0.30067,1.86406 -0.88503,3.68178 -1.75699,5.45565 -1.7738,3.48761 -4.24047,6.02853 -7.39745,7.62201 -3.12672,1.62353 -6.89809,2.43359 -11.31781,2.43359 -4.4496,0 -8.19304,-0.73579 -11.22965,-2.209 -3.00658,-1.47322 -5.41437,-3.78849 -7.21836,-6.94538 -0.99211,-1.83399 -1.68167,-3.71341 -2.07252,-5.6376 -0.36074,-1.9242 -0.54298,-4.94441 -0.54298,-9.06339 z m 21.06351,55.42652 c -10.94378,0 -19.52797,3.23043 -25.7516,9.69453 -6.19344,6.46409 -9.29073,15.40987 -9.29073,26.83479 0,4.93074 0.57182,9.87663 1.71426,14.83745 1.17255,4.96082 2.34419,8.94529 3.51674,11.95185 h 33.14613 v -30.98268 h -12.6711 v 13.39322 h -13.16859 c -0.0601,-0.66144 -0.1064,-1.39721 -0.13651,-2.20899 -0.03,-0.7817 -0.0451,-1.5049 -0.0451,-2.16635 0,-7.69677 1.96912,-13.51439 5.90765,-17.45297 3.9386,-3.9386 9.62308,-5.90769 17.04929,-5.90769 3.63794,0 6.84035,0.54097 9.60641,1.62333 2.79609,1.11243 5.09598,2.61766 6.8999,4.5118 1.86406,1.98432 3.24589,4.22249 4.14788,6.71793 0.902,2.49543 1.35322,5.27742 1.35322,8.34411 0,2.61571 -0.34617,5.07952 -1.03761,7.39456 -0.69152,2.34512 -1.51699,4.39133 -2.47913,6.13513 -0.81174,1.50328 -1.80399,3.06736 -2.97654,4.6909 -1.14251,1.62354 -2.02964,2.85404 -2.66101,3.69587 v 1.94174 h 15.73867 c 2.3751,-4.90068 3.9547,-9.35186 4.7364,-13.35059 0.8118,-3.99871 1.2168,-8.20882 1.2168,-12.62846 0,-11.66543 -3.2025,-20.75976 -9.60647,-27.28397 -6.37389,-6.52424 -14.77584,-9.78551 -25.20862,-9.78551 z m -33.6436,78.83269 v 48.56929 h 12.98663 v -31.34373 h 16.59732 v 29.08926 h 12.98656 v -29.08926 h 11.59077 v 31.34373 h 12.98965 v -48.56929 z m 0,63.09118 v 17.22839 h 24.6229 v 7.98306 l -24.6229,18.30872 v 21.15169 l 28.77079,-22.41397 c 2.07454,4.26931 4.67712,7.54601 7.80392,9.83099 3.12687,2.31505 7.17015,3.47411 12.13097,3.47411 3.6079,0 6.60006,-0.75404 8.97534,-2.25732 2.40525,-1.47322 4.35881,-3.47031 5.86221,-5.99581 1.5031,-2.49545 2.48,-5.17233 2.931,-8.02855 0.451,-2.85624 0.6767,-6.26888 0.6767,-10.23754 v -29.04377 z m 36.70837,17.22839 h 18.08412 v 6.26875 c 0,2.07453 -0.0593,3.89225 -0.17909,5.45566 -0.0902,1.5634 -0.37756,2.93269 -0.85859,4.10524 -0.69144,1.68368 -1.63751,2.87074 -2.8401,3.56224 -1.20266,0.69151 -2.64613,1.03769 -4.3299,1.03769 -1.8941,0 -3.41192,-0.28733 -4.55443,-0.85857 -1.11248,-0.54119 -2.13544,-1.41292 -3.06755,-2.61554 -0.96207,-1.26276 -1.57736,-2.82399 -1.84799,-4.68805 -0.27055,-1.86406 -0.40647,-4.17935 -0.40647,-6.94538 z" />
  </g>
</svg>
